<svg width="736" height="368" viewBox="0 0 736 368" fill="none" xmlns="http://www.w3.org/2000/svg">
<rect width="736" height="368" fill="#171717"/>
<g clip-path="url(#clip0_4711_53325)">
<path d="M313.08 204.636L305.482 209.024H277.38V163.172H305.482L313.08 167.56V204.636ZM286.551 171.032V201.164H303.909V171.032H286.551ZM353.883 204.963L346.284 209.352H332.332L324.733 204.963V180.334L332.332 175.945H346.284L353.883 180.334V204.963ZM333.707 183.609V201.688H344.909V183.609H333.707ZM373.847 183.936V201.36H390.092V209.024H372.472L364.873 204.636V180.661L372.472 176.272H390.092V183.936H373.847ZM397.147 183.936V176.272H403.174V170.77L412.148 165.595V176.272H419.353V183.936H412.148V201.36H419.353V209.024H410.772L403.174 204.636V183.936H397.147ZM438.007 209.024H429.033V161.206H438.007V178.631L442.657 175.945H451.238L458.837 180.334V209.024H449.863V183.609H438.007V209.024ZM490.117 183.936H478.85V209.024H469.876V176.272H477.278L478.85 178.958L483.501 176.272H490.117V183.936ZM497.862 204.963V176.272H506.836V201.688H518.037V176.272H527.011V209.352H519.609L518.037 206.666L513.386 209.352H505.46L497.862 204.963Z" fill="#525252"/>
<rect x="202.215" y="153.294" width="53.222" height="61.41" rx="4.094" fill="#262626"/>
<path d="M235.992 173.764L243.156 182.719L235.992 191.675" stroke="#FFC117" stroke-width="4.9128"/>
<path d="M221.661 173.764L214.496 182.719L221.661 191.675" stroke="#FFC117" stroke-width="4.9128"/>
</g>
<defs>
<clipPath id="clip0_4711_53325">
<rect width="363.911" height="81.88" fill="white" transform="translate(185.84 143.059)"/>
</clipPath>
</defs>
</svg>
