<svg width="320" height="168" viewBox="0 0 320 168" fill="none" xmlns="http://www.w3.org/2000/svg">
<path d="M75.9844 42.7064C75.9844 36.3339 81.1503 31.168 87.5228 31.168H239.061C245.434 31.168 250.6 36.3339 250.6 42.7064V138.86C250.6 145.233 245.434 150.399 239.061 150.399H87.5229C81.1503 150.399 75.9844 145.233 75.9844 138.86V42.7064Z" fill="#F5F5F5"/>
<rect x="91.9844" y="66.3984" width="69.6" height="11.2" rx="5.6" fill="#E5E5E5"/>
<path d="M75.9844 41.9369C75.9844 35.5644 81.1503 30.3984 87.5228 30.3984H239.061C245.434 30.3984 250.6 35.5644 250.6 41.9369V47.3215H75.9844V41.9369Z" fill="#E5E5E5"/>
<rect x="91.9844" y="86.3984" width="56.8" height="12" rx="6" fill="#E5E5E5"/>
<rect x="214.121" y="88.6334" width="79.4562" height="34.2294" rx="17.1147" transform="rotate(10 214.121 88.6334)" fill="#E5E5E5"/>
<rect x="214.121" y="88.6334" width="79.4562" height="34.2294" rx="17.1147" transform="rotate(10 214.121 88.6334)" stroke="white" stroke-width="1.07798"/>
<path d="M230.952 102.184L224.588 115.804L221.933 115.336L228.313 101.718L230.952 102.184ZM237.647 103.364L231.284 116.984L228.629 116.516L235.009 102.899L237.647 103.364ZM240.392 111.517L239.5 116.58L236.383 116.03L238.488 104.091L241.49 104.62L240.667 109.287L240.766 109.304C241.359 108.253 242.451 107.748 243.771 107.981C245.667 108.315 246.66 109.918 246.311 111.897L245.305 117.603L242.188 117.054L243.08 111.991C243.243 111.067 242.861 110.439 242.003 110.288C241.195 110.145 240.555 110.593 240.392 111.517ZM251.163 118.806C248.31 118.303 246.867 116.263 247.376 113.377C247.864 110.607 249.955 109.071 252.725 109.56C255.38 110.028 256.842 112.054 256.336 114.923L256.205 115.665L250.335 114.63L250.314 114.746C250.151 115.669 250.629 116.434 251.618 116.608C252.294 116.727 252.891 116.526 253.179 116.05L256.032 116.553C255.393 118.345 253.603 119.236 251.163 118.806ZM250.643 112.882L253.628 113.409C253.754 112.598 253.226 111.926 252.401 111.781C251.569 111.634 250.809 112.087 250.643 112.882ZM262.103 108.255L259.998 120.194L256.881 119.644L258.986 107.705L262.103 108.255ZM266.885 109.098L264.78 121.037L261.663 120.488L263.769 108.548L266.885 109.098ZM270.688 122.249C267.802 121.74 266.399 119.571 266.885 116.817C267.37 114.063 269.43 112.505 272.316 113.014C275.202 113.523 276.589 115.689 276.103 118.443C275.617 121.197 273.574 122.758 270.688 122.249ZM271.111 119.943C271.985 120.097 272.673 119.283 272.923 117.865C273.176 116.43 272.805 115.447 271.931 115.293C271.024 115.133 270.323 115.927 270.07 117.362C269.82 118.78 270.204 119.783 271.111 119.943Z" fill="#A3A3A3"/>
<path d="M270.317 60.4382L270.958 57.4498L281.361 55.614L280.681 58.7858L274.153 59.6303L274.125 59.7586L279.734 63.2042L279.054 66.3759L270.317 60.4382ZM290.869 54.3728L283.191 69.3527L280.239 68.7201L287.936 53.7442L290.869 54.3728ZM299.926 66.7837L289.523 68.6195L290.203 65.4477L296.712 64.5993L296.74 64.471L291.149 61.0293L291.829 57.8576L300.566 63.7954L299.926 66.7837Z" fill="#E5E5E5"/>
<path d="M66.8993 57.1045C75.6895 55.7124 83.9439 61.7103 85.3361 70.5005C86.7281 79.2905 80.731 87.5448 71.9411 88.9372L47.544 92.8013C38.7541 94.1932 30.4998 88.1961 29.1073 79.4062C27.7151 70.6159 33.7129 62.3607 42.5032 60.9684L66.8993 57.1045Z" fill="#E5E5E5"/>
<path d="M66.8993 57.1045C75.6895 55.7124 83.9439 61.7103 85.3361 70.5005C86.7281 79.2905 80.731 87.5448 71.9411 88.9372L47.544 92.8013C38.7541 94.1932 30.4998 88.1961 29.1073 79.4062C27.7151 70.6159 33.7129 62.3607 42.5032 60.9684L66.8993 57.1045Z" stroke="white" stroke-width="1.07798"/>
<path d="M48.0223 70.8727L46.5924 84.381L44.1864 84.7621L45.6312 71.2514L48.0223 70.8727ZM54.4462 76.6111L52.8023 76.8714L52.6661 74.9474L51.2697 76.2869L50.2205 74.9824L51.8286 73.9158L49.9672 73.3834L50.562 71.8185L52.3039 72.6609L51.8389 70.789L53.4828 70.5287L53.619 72.4526L55.0154 71.1132L56.0795 72.4153L54.4738 73.4969L56.3328 74.0143L55.7231 75.5816L53.9812 74.7391L54.4462 76.6111ZM69.6918 67.4405L68.2619 80.9489L65.8559 81.33L67.3007 67.8193L69.6918 67.4405Z" fill="#A3A3A3"/>
<path d="M57.2417 142.256C55.7641 142.514 54.271 141.595 53.8351 139.101C53.3798 136.497 54.5874 135.239 55.9694 134.978C56.9516 134.826 57.7101 135.245 58.1067 135.88L58.1805 135.867L58.0094 134.888L60.4105 134.468L61.1435 138.661C61.2307 139.16 61.4389 139.371 61.8083 139.306C62.4547 139.193 62.6949 138.39 62.4786 137.152C61.9878 134.345 59.7777 132.809 56.6378 133.358C53.5718 133.894 51.9628 136.231 52.5053 139.334C53.0833 142.64 55.1174 144.15 58.4235 143.572C59.7718 143.336 60.9248 142.963 61.8248 142.558L62.2446 144.959C61.2837 145.451 60.0905 145.812 58.853 146.028C54.0508 146.868 50.8953 144.279 50.1042 139.754C49.3357 135.358 51.831 131.667 56.2084 130.901C60.5303 130.146 64.1282 132.543 64.8483 136.662C65.3262 139.396 64.2612 141.143 61.934 141.549C60.5917 141.765 59.5071 141.441 59.0667 140.718L58.9928 140.731C58.8168 141.466 58.2206 142.084 57.2417 142.256ZM57.9255 139.852C58.5382 139.764 58.8324 139.16 58.6742 138.255C58.516 137.35 58.0377 136.901 57.4282 137.008C56.8187 137.114 56.5397 137.696 56.7164 138.598C56.8594 139.524 57.316 139.958 57.9255 139.852Z" fill="#E5E5E5"/>
</svg>
