<svg width="24" height="24" viewBox="0 0 24 24" fill="none" xmlns="http://www.w3.org/2000/svg">
<path d="M12.0015 20.27C11.8027 20.2698 11.612 20.1907 11.4715 20.05L4.47151 13.05C4.28395 12.8571 4.21355 12.5787 4.28685 12.3198C4.36014 12.0609 4.56599 11.8608 4.82685 11.7948C5.08771 11.7289 5.36395 11.8071 5.55151 12L12.0015 18.45L18.4515 12C18.6385 11.7993 18.9201 11.7168 19.1858 11.7846C19.4515 11.8525 19.659 12.06 19.7269 12.3257C19.7948 12.5914 19.7122 12.873 19.5115 13.06L12.5115 20.06C12.3744 20.1922 12.192 20.2673 12.0015 20.27Z" fill="black"/>
<path d="M12.0015 20.26C11.5896 20.2546 11.2569 19.922 11.2515 19.51V4.51C11.2515 4.24205 11.3945 3.99446 11.6265 3.86048C11.8586 3.72651 12.1445 3.72651 12.3765 3.86048C12.6086 3.99446 12.7515 4.24205 12.7515 4.51V19.51C12.7461 19.922 12.4135 20.2546 12.0015 20.26Z" fill="black"/>
<path d="M12.0015 21C11.6038 20.9996 11.2225 20.8414 10.9415 20.56L3.94151 13.56C3.35609 12.9718 3.35833 12.0204 3.94651 11.435C4.5347 10.8496 5.48609 10.8518 6.07151 11.44L12.0015 17.39L17.9215 11.46C18.5069 10.8718 19.4583 10.8696 20.0465 11.455C20.6347 12.0404 20.6369 12.9918 20.0515 13.58L13.0515 20.58C12.7697 20.8516 12.3929 21.0023 12.0015 21Z" fill="black"/>
<path d="M12.0015 21C11.1731 21 10.5015 20.3284 10.5015 19.5V4.5C10.5015 3.67157 11.1731 3 12.0015 3C12.8299 3 13.5015 3.67157 13.5015 4.5V19.5C13.5015 20.3284 12.8299 21 12.0015 21Z" fill="black"/>
</svg>
