<svg width="40" height="40" viewBox="0 0 40 40" fill="none" xmlns="http://www.w3.org/2000/svg">
<circle cx="20" cy="20" r="20" fill="#262626"/>
<path d="M28.27 20.0004C28.2698 20.1993 28.1907 20.3899 28.05 20.5304L21.05 27.5304C20.8571 27.718 20.5787 27.7884 20.3198 27.7151C20.0609 27.6418 19.8608 27.436 19.7948 27.1751C19.7289 26.9142 19.8071 26.638 20 26.4504L26.45 20.0004L20 13.5504C19.7993 13.3635 19.7168 13.0819 19.7846 12.8162C19.8525 12.5504 20.06 12.3429 20.3257 12.2751C20.5914 12.2072 20.873 12.2898 21.06 12.4904L28.06 19.4904C28.1922 19.6276 28.2673 19.8099 28.27 20.0004Z" fill="white"/>
<path d="M28.26 20.0004C28.2546 20.4124 27.922 20.7451 27.51 20.7504L12.51 20.7504C12.2421 20.7504 11.9945 20.6075 11.8605 20.3754C11.7265 20.1434 11.7265 19.8575 11.8605 19.6254C11.9945 19.3934 12.2421 19.2504 12.51 19.2504L27.51 19.2504C27.922 19.2558 28.2546 19.5885 28.26 20.0004Z" fill="white"/>
<path d="M29 20.0004C28.9996 20.3981 28.8414 20.7794 28.56 21.0604L21.56 28.0604C20.9718 28.6459 20.0204 28.6436 19.435 28.0554C18.8496 27.4673 18.8518 26.5159 19.44 25.9304L25.39 20.0004L19.46 14.0804C18.8718 13.495 18.8696 12.5436 19.455 11.9554C20.0404 11.3673 20.9918 11.365 21.58 11.9504L28.58 18.9504C28.8516 19.2322 29.0023 19.609 29 20.0004Z" fill="white"/>
<path d="M29 20.0004C29 20.8289 28.3284 21.5004 27.5 21.5004L12.5 21.5004C11.6716 21.5004 11 20.8289 11 20.0004C11 19.172 11.6716 18.5004 12.5 18.5004L27.5 18.5004C28.3284 18.5004 29 19.172 29 20.0004Z" fill="white"/>
</svg>
