<svg width="24" height="24" viewBox="0 0 24 24" fill="none" xmlns="http://www.w3.org/2000/svg">
<circle cx="12" cy="12" r="12" fill="#262626"/>
<path d="M16.9636 11.9991C16.9635 12.1184 16.916 12.2328 16.8316 12.3171L12.6316 16.5171C12.5158 16.6296 12.3488 16.6719 12.1935 16.6279C12.0381 16.5839 11.9181 16.4604 11.8785 16.3039C11.8389 16.1474 11.8858 15.9816 12.0016 15.8691L15.8716 11.9991L12.0016 8.12909C11.8812 8.01691 11.8316 7.84796 11.8723 7.68852C11.913 7.52908 12.0375 7.40458 12.197 7.36386C12.3564 7.32314 12.5254 7.3727 12.6376 7.49309L16.8376 11.6931C16.9169 11.7754 16.962 11.8848 16.9636 11.9991Z" fill="white"/>
<path d="M16.9576 11.9991C16.9543 12.2463 16.7547 12.4459 16.5076 12.4491L7.50756 12.4491C7.34679 12.4491 7.19824 12.3633 7.11785 12.2241C7.03747 12.0849 7.03747 11.9133 7.11785 11.7741C7.19824 11.6349 7.34679 11.5491 7.50756 11.5491L16.5076 11.5491C16.7547 11.5523 16.9543 11.7519 16.9576 11.9991Z" fill="white"/>
<path d="M17.4016 11.9991C17.4014 12.2377 17.3064 12.4665 17.1376 12.6351L12.9376 16.8351C12.5847 17.1863 12.0138 17.185 11.6626 16.8321C11.3113 16.4792 11.3127 15.9083 11.6656 15.5571L15.2356 11.9991L11.6776 8.44709C11.3247 8.09584 11.3233 7.525 11.6746 7.17209C12.0258 6.81918 12.5967 6.81784 12.9496 7.16909L17.1496 11.3691C17.3125 11.5382 17.403 11.7643 17.4016 11.9991Z" fill="white"/>
<path d="M17.4016 11.9991C17.4016 12.4961 16.9986 12.8991 16.5016 12.8991L7.50156 12.8991C7.00451 12.8991 6.60156 12.4961 6.60156 11.9991C6.60156 11.502 7.00451 11.0991 7.50156 11.0991L16.5016 11.0991C16.9986 11.0991 17.4016 11.502 17.4016 11.9991Z" fill="white"/>
</svg>
