<svg width="24" height="24" viewBox="0 0 24 24" fill="none" xmlns="http://www.w3.org/2000/svg">
<g clip-path="url(#clip0_4711_52359)">
<path fill-rule="evenodd" clip-rule="evenodd" d="M9.41041 3.51556C9.6008 3.95075 9.40236 4.45788 8.96718 4.64827L1.83735 7.76757V20.1893L7.7809 17.4156C8.21135 17.2147 8.72313 17.4008 8.92401 17.8313C9.12488 18.2617 8.93878 18.7735 8.50833 18.9744L1.34099 22.3191C1.07461 22.4435 0.763196 22.4231 0.515255 22.2652C0.267313 22.1073 0.117188 21.8337 0.117188 21.5398V7.20506C0.117188 6.86335 0.319473 6.55405 0.632532 6.41709L8.2777 3.07233C8.71289 2.88194 9.22002 3.08038 9.41041 3.51556Z" fill="#F24744"/>
<circle cx="3.84237" cy="13.4166" r="0.955646" fill="#F24744"/>
<path fill-rule="evenodd" clip-rule="evenodd" d="M8.6218 3C8.14679 3 7.76172 3.38507 7.76172 3.86008V18.1948C7.76172 18.6698 8.14679 19.0549 8.6218 19.0549H17.2226C17.6976 19.0549 18.0827 18.6698 18.0827 18.1948V13H16.3625V17.3347H9.48188V4.72016H16.3625V9H18.0827V3.86008C18.0827 3.38507 17.6976 3 17.2226 3H8.6218Z" fill="#F24744"/>
<path d="M16 10.8226H23.1673M23.1673 10.8226L19.3448 7M23.1673 10.8226L19.3448 14.6452" stroke="#F24744" stroke-width="1.72016" stroke-linecap="round" stroke-linejoin="round"/>
</g>
<defs>
<clipPath id="clip0_4711_52359">
<rect width="24" height="24" fill="white"/>
</clipPath>
</defs>
</svg>
